<svg width="25" height="25" viewBox="0 0 25 25" fill="none" xmlns="http://www.w3.org/2000/svg">
<circle cx="12.5" cy="12.5" r="12.5" fill="black"/>
<path d="M15.625 6.89264C15.625 7.06065 15.5807 7.23706 15.4921 7.42188C15.4035 7.59829 15.2883 7.7579 15.1465 7.90071C15.0136 8.04351 14.8629 8.16112 14.6946 8.25353C14.5262 8.34593 14.3579 8.39214 14.1895 8.39214C14.0389 8.39214 13.9237 8.34173 13.8439 8.24093C13.7642 8.13172 13.7243 8.00151 13.7243 7.8503C13.7243 7.71589 13.7509 7.55628 13.8041 7.37147C13.8572 7.18666 13.937 7.01445 14.0433 6.85484C14.1496 6.68683 14.2781 6.54402 14.4288 6.42641C14.5794 6.3088 14.7522 6.25 14.9471 6.25C15.1332 6.25 15.2927 6.3172 15.4256 6.45161C15.5585 6.58602 15.625 6.73303 15.625 6.89264ZM13.1395 9.69002C13.0243 9.90843 12.8603 10.1983 12.6477 10.5595C12.4439 10.9123 12.2224 11.3029 11.9831 11.7314C11.7439 12.1514 11.5002 12.5966 11.2521 13.067C11.004 13.5291 10.778 13.9827 10.5742 14.4279C10.3793 14.8648 10.2198 15.2764 10.0957 15.6628C9.97164 16.0492 9.90962 16.3768 9.90962 16.6457C9.90962 16.8893 9.96278 17.0573 10.0691 17.1497C10.1754 17.2337 10.3261 17.2757 10.521 17.2757C10.8843 17.2757 11.2388 17.1623 11.5844 16.9355C11.9299 16.7087 12.2711 16.4146 12.6078 16.0534C12.9534 15.6838 13.2901 15.2638 13.618 14.7933C13.9458 14.3229 14.2737 13.8483 14.6015 13.3695L15.08 13.7223C14.8231 14.1591 14.5307 14.6253 14.2028 15.121C13.8838 15.6166 13.5249 16.0786 13.1262 16.5071C12.7274 16.9271 12.2888 17.2757 11.8103 17.5529C11.3318 17.8301 10.809 17.9688 10.2419 17.9688C9.71024 17.9688 9.30263 17.8175 9.01908 17.5151C8.73553 17.2127 8.59375 16.8221 8.59375 16.3432C8.59375 15.7804 8.7311 15.1924 9.00579 14.5791C9.28048 13.9659 9.62163 13.3611 10.0292 12.7646C10.4457 12.1598 10.8932 11.5801 11.3717 11.0257C11.8591 10.4713 12.3065 9.96724 12.7141 9.51361L13.1395 9.69002Z" fill="white"/>
</svg>
