<svg width="47" height="47" viewBox="0 0 47 47" fill="none" xmlns="http://www.w3.org/2000/svg">
<circle cx="23.5" cy="23.5" r="23.5" fill="#FFCD00"/>
<path d="M30.0001 18.16C29.9401 18.15 29.8701 18.15 29.8101 18.16C28.4301 18.11 27.3301 16.98 27.3301 15.58C27.3301 14.15 28.4801 13 29.9101 13C31.3401 13 32.4901 14.16 32.4901 15.58C32.4801 16.98 31.3801 18.11 30.0001 18.16Z" stroke="black" stroke-width="1.5" stroke-linecap="round" stroke-linejoin="round"/>
<path d="M28.9695 25.4402C30.3395 25.6702 31.8495 25.4302 32.9095 24.7202C34.3195 23.7802 34.3195 22.2402 32.9095 21.3002C31.8395 20.5902 30.3095 20.3502 28.9395 20.5902" stroke="black" stroke-width="1.5" stroke-linecap="round" stroke-linejoin="round"/>
<path d="M17.9685 18.16C18.0285 18.15 18.0985 18.15 18.1585 18.16C19.5385 18.11 20.6385 16.98 20.6385 15.58C20.6385 14.15 19.4885 13 18.0585 13C16.6285 13 15.4785 14.16 15.4785 15.58C15.4885 16.98 16.5885 18.11 17.9685 18.16Z" stroke="black" stroke-width="1.5" stroke-linecap="round" stroke-linejoin="round"/>
<path d="M18.9995 25.4402C17.6295 25.6702 16.1195 25.4302 15.0595 24.7202C13.6495 23.7802 13.6495 22.2402 15.0595 21.3002C16.1295 20.5902 17.6595 20.3502 19.0295 20.5902" stroke="black" stroke-width="1.5" stroke-linecap="round" stroke-linejoin="round"/>
<path d="M24.0001 25.6297C23.9401 25.6197 23.8701 25.6197 23.8101 25.6297C22.4301 25.5797 21.3301 24.4497 21.3301 23.0497C21.3301 21.6197 22.4801 20.4697 23.9101 20.4697C25.3401 20.4697 26.4901 21.6297 26.4901 23.0497C26.4801 24.4497 25.3801 25.5897 24.0001 25.6297Z" stroke="black" stroke-width="1.5" stroke-linecap="round" stroke-linejoin="round"/>
<path d="M21.0907 28.7794C19.6807 29.7194 19.6807 31.2594 21.0907 32.1994C22.6907 33.2694 25.3107 33.2694 26.9107 32.1994C28.3207 31.2594 28.3207 29.7194 26.9107 28.7794C25.3207 27.7194 22.6907 27.7194 21.0907 28.7794Z" stroke="black" stroke-width="1.5" stroke-linecap="round" stroke-linejoin="round"/>
</svg>
