<svg width="28" height="34" viewBox="0 0 28 34" fill="none" xmlns="http://www.w3.org/2000/svg">
<path d="M10.4 1.89453L2.00004 10.0129L2.00004 11.1726L2 27.4093C1.99999 29.9714 4.14902 32.0484 6.79999 32.0484H21.2C23.851 32.0484 26 29.9714 26 27.4093V6.53358C26 3.97151 23.851 1.89453 21.2 1.89453H11.6H10.4Z" fill="#FFD84D"/>
<path d="M2.00004 10.1183L1.26761 9.36051L0.946115 9.67123L0.946114 10.1183L2.00004 10.1183ZM10.4 2V0.946074H9.97396L9.6676 1.24217L10.4 2ZM26 6.63905H24.9461H26ZM26 27.5148H27.0539H26ZM2 27.5148L3.05393 27.5148L2 27.5148ZM11.6 11.2781V12.332H12.6539V11.2781H11.6ZM2.00004 11.2781L0.946111 11.2781L2.00004 11.2781ZM2.73246 10.8762L11.1324 2.75783L9.6676 1.24217L1.26761 9.36051L2.73246 10.8762ZM6.79999 33.2078H21.2V31.0999H6.79999V33.2078ZM24.9461 6.63905L24.9461 27.5148H27.0539L27.0539 6.63905H24.9461ZM6.79999 31.0999C4.69692 31.0999 3.05392 29.4612 3.05393 27.5148L0.946074 27.5148C0.946066 30.6925 3.60112 33.2078 6.79999 33.2078V31.0999ZM21.2 33.2078C24.3989 33.2078 27.0539 30.6925 27.0539 27.5148H24.9461C24.9461 29.4612 23.3031 31.0999 21.2 31.0999V33.2078ZM21.2 3.05393C23.3031 3.05393 24.9461 4.69263 24.9461 6.63905H27.0539C27.0539 3.46132 24.3989 0.946074 21.2 0.946074V3.05393ZM10.4 3.05393H11.6V0.946074H10.4V3.05393ZM11.6 3.05393H21.2V0.946074H11.6V3.05393ZM0.946114 10.1183L0.946111 11.2781L3.05396 11.2781L3.05397 10.1183L0.946114 10.1183ZM0.946111 11.2781L0.946074 27.5148L3.05393 27.5148L3.05396 11.2781L0.946111 11.2781ZM10.546 2V11.2781H12.6539V2H10.546ZM11.6 10.2242H2.00004V12.332H11.6V10.2242Z" fill="black"/>
<path d="M9.38477 19.2305H18.6155M9.38477 25.3843H14.0001" stroke="black" stroke-width="2.10785" stroke-linecap="round"/>
</svg>
