<svg width="32" height="32" viewBox="0 0 32 32" fill="none" xmlns="http://www.w3.org/2000/svg">
<circle cx="16" cy="16" r="16" fill="black"/>
<path d="M20 8.82258C20 9.03763 19.9433 9.26344 19.8299 9.5C19.7164 9.72581 19.569 9.93011 19.3875 10.1129C19.2174 10.2957 19.0246 10.4462 18.8091 10.5645C18.5936 10.6828 18.3781 10.7419 18.1626 10.7419C17.9698 10.7419 17.8223 10.6774 17.7202 10.5484C17.6181 10.4086 17.5671 10.2419 17.5671 10.0484C17.5671 9.87634 17.6011 9.67204 17.6692 9.43548C17.7372 9.19892 17.8393 8.97849 17.9754 8.77419C18.1115 8.55914 18.276 8.37634 18.4688 8.22581C18.6616 8.07527 18.8828 8 19.1323 8C19.3705 8 19.5747 8.08602 19.7448 8.25806C19.9149 8.43011 20 8.61828 20 8.82258ZM16.8185 12.4032C16.6711 12.6828 16.4612 13.0538 16.189 13.5161C15.9282 13.9677 15.6446 14.4677 15.3384 15.0161C15.0321 15.5538 14.7202 16.1237 14.4026 16.7258C14.0851 17.3172 13.7958 17.8978 13.535 18.4677C13.2854 19.0269 13.0813 19.5538 12.9225 20.0484C12.7637 20.543 12.6843 20.9624 12.6843 21.3065C12.6843 21.6183 12.7524 21.8333 12.8885 21.9516C13.0246 22.0591 13.2174 22.1129 13.4669 22.1129C13.9319 22.1129 14.3856 21.9677 14.828 21.6774C15.2703 21.3871 15.707 21.0108 16.138 20.5484C16.5803 20.0753 17.0113 19.5376 17.431 18.9355C17.8507 18.3333 18.2703 17.7258 18.69 17.1129L19.3025 17.5645C18.9735 18.1237 18.5992 18.7204 18.1796 19.3548C17.7713 19.9892 17.3119 20.5806 16.8015 21.129C16.2911 21.6667 15.7297 22.1129 15.1172 22.4677C14.5047 22.8226 13.8355 23 13.1096 23C12.4291 23 11.9074 22.8065 11.5444 22.4194C11.1815 22.0323 11 21.5323 11 20.9194C11 20.1989 11.1758 19.4462 11.5274 18.6613C11.879 17.8763 12.3157 17.1022 12.8374 16.3387C13.3705 15.5645 13.9433 14.8226 14.5558 14.1129C15.1796 13.4032 15.7524 12.7581 16.2741 12.1774L16.8185 12.4032Z" fill="white"/>
</svg>
