<svg width="39" height="39" viewBox="0 0 39 39" fill="none" xmlns="http://www.w3.org/2000/svg">
<path d="M12.9375 32.625H12C4.5 32.625 0.75 30.75 0.75 21.375V12C0.75 4.5 4.5 0.75 12 0.75H27C34.5 0.75 38.25 4.5 38.25 12V21.375C38.25 28.875 34.5 32.625 27 32.625H26.0625C25.4813 32.625 24.9187 32.9062 24.5625 33.375L21.75 37.125C20.5125 38.775 18.4875 38.775 17.25 37.125L14.4375 33.375C14.1375 32.9625 13.4438 32.625 12.9375 32.625Z" fill="#50BD88"/>
<path d="M26.9917 17.625H27.0085" stroke="white" stroke-width="2.8125" stroke-linecap="round" stroke-linejoin="round"/>
<path d="M19.4917 17.625H19.5085" stroke="white" stroke-width="2.8125" stroke-linecap="round" stroke-linejoin="round"/>
<path d="M11.9897 17.625H12.0065" stroke="white" stroke-width="2.8125" stroke-linecap="round" stroke-linejoin="round"/>
</svg>
