<svg width="36" height="36" viewBox="0 0 36 36" fill="none" xmlns="http://www.w3.org/2000/svg">
<path d="M13.1777 34.0706H22.8206C30.8563 34.0706 34.0706 30.8563 34.0706 22.8206V13.1777C34.0706 5.14202 30.8563 1.92773 22.8206 1.92773H13.1777C5.14202 1.92773 1.92773 5.14202 1.92773 13.1777V22.8206C1.92773 30.8563 5.14202 34.0706 13.1777 34.0706Z" fill="#FFCD00" stroke="black" stroke-width="2" stroke-linecap="round" stroke-linejoin="round"/>
<path d="M14.9621 16.6328H10.7032C9.69071 16.6328 8.87109 17.4524 8.87109 18.4649V26.6934H14.9621V16.6328V16.6328Z" stroke="black" stroke-width="2" stroke-miterlimit="10" stroke-linecap="round" stroke-linejoin="round"/>
<path d="M19.2223 9.32031H16.7794C15.7669 9.32031 14.9473 10.14 14.9473 11.1525V26.6775H21.0384V11.1525C21.0384 10.14 20.2348 9.32031 19.2223 9.32031Z" stroke="black" stroke-width="2" stroke-miterlimit="10" stroke-linecap="round" stroke-linejoin="round"/>
<path d="M25.3097 19.3652H21.0508V26.6778H27.1419V21.1974C27.1258 20.1849 26.3061 19.3652 25.3097 19.3652Z" stroke="black" stroke-width="2" stroke-miterlimit="10" stroke-linecap="round" stroke-linejoin="round"/>
</svg>
