<svg width="38" height="38" viewBox="0 0 38 38" fill="none" xmlns="http://www.w3.org/2000/svg">
<circle cx="19" cy="19" r="19" fill="#D70C27"/>
<path d="M14.9922 18.2891C16.4141 18.2891 17.2734 17.2031 17.2734 15.4609V15.4531C17.2734 13.7188 16.4141 12.6328 14.9922 12.6328C13.5703 12.6328 12.7109 13.7188 12.7109 15.4531V15.4609C12.7109 17.2031 13.5703 18.2891 14.9922 18.2891ZM15.5 24L22.7188 12.7266H21.4531L14.2188 24H15.5ZM14.9922 17.3516C14.2344 17.3516 13.7969 16.6484 13.7969 15.4609V15.4531C13.7969 14.2656 14.2344 13.5703 14.9922 13.5703C15.75 13.5703 16.1875 14.2656 16.1875 15.4531V15.4609C16.1875 16.6484 15.75 17.3516 14.9922 17.3516ZM21.9375 24.0938C23.3594 24.0938 24.2188 23.0078 24.2188 21.2656V21.2578C24.2188 19.5234 23.3594 18.4375 21.9375 18.4375C20.5156 18.4375 19.6562 19.5234 19.6562 21.2578V21.2656C19.6562 23.0078 20.5156 24.0938 21.9375 24.0938ZM21.9375 23.1562C21.1797 23.1562 20.7422 22.4531 20.7422 21.2656V21.2578C20.7422 20.0703 21.1797 19.375 21.9375 19.375C22.6953 19.375 23.1328 20.0703 23.1328 21.2578V21.2656C23.1328 22.4531 22.6953 23.1562 21.9375 23.1562Z" fill="white"/>
</svg>
