<svg width="56" height="56" viewBox="0 0 56 56" fill="none" xmlns="http://www.w3.org/2000/svg">
<path d="M27.929 4.66699C15.049 4.66699 4.5957 15.1203 4.5957 28.0003C4.5957 40.8803 15.049 51.3337 27.929 51.3337C40.809 51.3337 51.2624 40.8803 51.2624 28.0003C51.2624 15.1203 40.8324 4.66699 27.929 4.66699ZM34.929 33.2037L28.1624 37.1003C27.3224 37.5903 26.389 37.8237 25.479 37.8237C24.5457 37.8237 23.6357 37.5903 22.7957 37.1003C21.1157 36.1203 20.1124 34.3937 20.1124 32.4337V24.617C20.1124 22.6803 21.1157 20.9303 22.7957 19.9503C24.4757 18.9703 26.4824 18.9703 28.1857 19.9503L34.9524 23.847C36.6324 24.827 37.6357 26.5537 37.6357 28.5137C37.6357 30.4737 36.6324 32.2237 34.929 33.2037Z" fill="#4DCC8C"/>
</svg>
