<svg width="38" height="38" viewBox="0 0 38 38" fill="none" xmlns="http://www.w3.org/2000/svg">
<path d="M13.5013 37.3337H24.5013C33.668 37.3337 37.3346 33.667 37.3346 24.5003V13.5003C37.3346 4.33366 33.668 0.666992 24.5013 0.666992H13.5013C4.33464 0.666992 0.667969 4.33366 0.667969 13.5003V24.5003C0.667969 33.667 4.33464 37.3337 13.5013 37.3337Z" fill="#008CFF"/>
<path d="M29.0846 19.0003C29.0846 24.5737 24.5746 29.0837 19.0013 29.0837C13.428 29.0837 10.0363 23.4737 10.0363 23.4737M10.0363 23.4737H14.583M10.0363 23.4737V28.5153M8.91797 19.0003C8.91797 13.427 13.3913 8.91699 19.0013 8.91699C25.7296 8.91699 29.0846 14.527 29.0846 14.527M29.0846 14.527V9.48532M29.0846 14.527H24.6113" stroke="white" stroke-width="2.0625" stroke-linecap="round" stroke-linejoin="round"/>
</svg>
