<svg width="28" height="28" viewBox="0 0 28 28" fill="none" xmlns="http://www.w3.org/2000/svg">
<path d="M5.83398 11.6673H8.16732C10.5007 11.6673 11.6673 10.5007 11.6673 8.16732V5.83398C11.6673 3.50065 10.5007 2.33398 8.16732 2.33398H5.83398C3.50065 2.33398 2.33398 3.50065 2.33398 5.83398V8.16732C2.33398 10.5007 3.50065 11.6673 5.83398 11.6673Z" fill="#FFCD00" stroke="black" stroke-width="1.5" stroke-miterlimit="10" stroke-linecap="round" stroke-linejoin="round"/>
<path d="M19.834 11.6673H22.1673C24.5007 11.6673 25.6673 10.5007 25.6673 8.16732V5.83398C25.6673 3.50065 24.5007 2.33398 22.1673 2.33398H19.834C17.5007 2.33398 16.334 3.50065 16.334 5.83398V8.16732C16.334 10.5007 17.5007 11.6673 19.834 11.6673Z" fill="#FFCD00" stroke="black" stroke-width="1.5" stroke-miterlimit="10" stroke-linecap="round" stroke-linejoin="round"/>
<path d="M19.834 25.6673H22.1673C24.5007 25.6673 25.6673 24.5007 25.6673 22.1673V19.834C25.6673 17.5007 24.5007 16.334 22.1673 16.334H19.834C17.5007 16.334 16.334 17.5007 16.334 19.834V22.1673C16.334 24.5007 17.5007 25.6673 19.834 25.6673Z" fill="#FFCD00" stroke="black" stroke-width="1.5" stroke-miterlimit="10" stroke-linecap="round" stroke-linejoin="round"/>
<path d="M5.83398 25.6673H8.16732C10.5007 25.6673 11.6673 24.5007 11.6673 22.1673V19.834C11.6673 17.5007 10.5007 16.334 8.16732 16.334H5.83398C3.50065 16.334 2.33398 17.5007 2.33398 19.834V22.1673C2.33398 24.5007 3.50065 25.6673 5.83398 25.6673Z" fill="#FFCD00" stroke="black" stroke-width="1.5" stroke-miterlimit="10" stroke-linecap="round" stroke-linejoin="round"/>
</svg>
