<svg width="13" height="8" viewBox="0 0 13 8" fill="none" xmlns="http://www.w3.org/2000/svg">
<path d="M11.872 6.87151C11.9125 6.8318 11.9447 6.78439 11.9667 6.73207C11.9887 6.67975 12 6.62358 12 6.56683C12 6.51008 11.9887 6.4539 11.9667 6.40158C11.9447 6.34926 11.9125 6.30185 11.872 6.26214L1.24822 6.87245C1.33193 6.95422 1.44432 7 1.56134 7C1.67837 7 1.79075 6.95422 1.87447 6.87245L1.87447 6.87151M11.872 6.87151C11.7883 6.95328 11.6759 6.99906 11.5588 6.99906C11.4418 6.99906 11.3294 6.95328 11.2457 6.87151M11.872 6.87151L11.872 6.87152L11.872 6.87151ZM11.2457 6.87151L6.56009 2.30401M11.2457 6.87151L11.0712 7.05053L11.0711 7.05047C11.2016 7.17779 11.3766 7.24906 11.5588 7.24906C11.7412 7.24906 11.9162 7.17774 12.0467 7.05036L12.0467 7.05036L12.0469 7.05008C12.1112 6.98709 12.1623 6.9119 12.1972 6.82892C12.232 6.74594 12.25 6.65683 12.25 6.56683C12.25 6.47682 12.232 6.38771 12.1972 6.30473C12.1623 6.22175 12.1112 6.14656 12.0469 6.08357L12.0465 6.08314L7.06181 1.22314L7.06178 1.22311C6.92756 1.09228 6.74753 1.01906 6.56009 1.01906C6.37265 1.01906 6.19263 1.09228 6.05841 1.22311L6.0584 1.22312L1.07382 6.08208C1.00907 6.14512 0.957609 6.22049 0.92247 6.30375C0.887331 6.38701 0.869228 6.47646 0.869228 6.56682C0.869228 6.65719 0.887331 6.74664 0.922469 6.8299C0.957609 6.91316 1.00907 6.98853 1.07382 7.05157C1.20421 7.17879 1.37917 7.25 1.56134 7.25C1.74366 7.25 1.91873 7.17868 2.04916 7.05129L2.12447 6.97773L2.12447 6.97694M11.2457 6.87151L11.071 7.05036L6.56009 2.65314M6.56009 2.30401L1.87447 6.87151M6.56009 2.30401L6.7346 2.48303L6.56009 2.65314M6.56009 2.30401L6.38559 2.48303L6.56009 2.65314M1.87447 6.87151L2.12447 6.87151L2.12447 6.87245L2.12447 6.97694M1.87447 6.87151L1.87538 6.87245L2.04897 7.05053L2.12447 6.97694M6.56009 2.65314L2.12447 6.97694" fill="white" stroke="white" stroke-width="0.5"/>
</svg>
