<svg width="13" height="8" viewBox="0 0 13 8" fill="none" xmlns="http://www.w3.org/2000/svg">
<path d="M1.18858 0.993233C1.14804 1.03295 1.11584 1.08035 1.09385 1.13267C1.07187 1.18499 1.06055 1.24117 1.06055 1.29792C1.06055 1.35467 1.07187 1.41085 1.09385 1.46317C1.11584 1.51549 1.14804 1.56289 1.18858 1.60261L11.8123 0.992295C11.7286 0.910524 11.6162 0.864746 11.4992 0.864746C11.3822 0.864746 11.2698 0.910524 11.1861 0.992295V0.993233M1.18858 0.993233C1.27229 0.911462 1.38468 0.865684 1.5017 0.865684C1.61873 0.865684 1.73111 0.911462 1.81483 0.993233M1.18858 0.993233L1.18857 0.99323L1.18858 0.993233ZM1.81483 0.993233L6.50045 5.56073M1.81483 0.993233L1.98933 0.814214L1.9894 0.81428C1.85899 0.68696 1.68396 0.615684 1.5017 0.615684C1.31939 0.615684 1.14431 0.687002 1.01389 0.814391L1.01389 0.81439L1.01361 0.814662C0.949323 0.877655 0.898246 0.952843 0.863376 1.03583C0.828507 1.11881 0.810547 1.20791 0.810547 1.29792C0.810547 1.38793 0.828507 1.47703 0.863376 1.56002C0.898245 1.643 0.949322 1.71819 1.01361 1.78118L1.01405 1.78161L5.99874 6.64161L5.99876 6.64163C6.13299 6.77246 6.31301 6.84569 6.50045 6.84569C6.68789 6.84569 6.86792 6.77246 7.00214 6.64163L7.00215 6.64163L11.9867 1.78267C12.0515 1.71963 12.1029 1.64425 12.1381 1.561C12.1732 1.47774 12.1913 1.38829 12.1913 1.29792C12.1913 1.20755 12.1732 1.1181 12.1381 1.03485C12.1029 0.951588 12.0515 0.876215 11.9867 0.813174C11.8563 0.685959 11.6814 0.614746 11.4992 0.614746C11.3169 0.614746 11.1418 0.686063 11.0114 0.813453L10.9361 0.887016V0.887805M1.81483 0.993233L1.98951 0.814391L6.50045 5.21161M6.50045 5.56073L11.1861 0.993233M6.50045 5.56073L6.32595 5.38171L6.50045 5.21161M6.50045 5.56073L6.67496 5.38171L6.50045 5.21161M11.1861 0.993233H10.9361V0.992295V0.887805M11.1861 0.993233L11.1852 0.992295L11.0116 0.814214L10.9361 0.887805M6.50045 5.21161L10.9361 0.887805" fill="black" stroke="black" stroke-width="0.5"/>
</svg>
