<svg width="24" height="24" viewBox="0 0 24 24" fill="none" xmlns="http://www.w3.org/2000/svg">
<path d="M15 22.75H9C3.57 22.75 1.25 20.43 1.25 15V9C1.25 3.57 3.57 1.25 9 1.25H11C11.41 1.25 11.75 1.59 11.75 2C11.75 2.41 11.41 2.75 11 2.75H9C4.39 2.75 2.75 4.39 2.75 9V15C2.75 19.61 4.39 21.25 9 21.25H15C19.61 21.25 21.25 19.61 21.25 15V13C21.25 12.59 21.59 12.25 22 12.25C22.41 12.25 22.75 12.59 22.75 13V15C22.75 20.43 20.43 22.75 15 22.75Z" fill="black"/>
<path d="M8.50032 17.6896C7.89032 17.6896 7.33032 17.4696 6.92032 17.0696C6.43032 16.5796 6.22032 15.8696 6.33032 15.1196L6.76032 12.1096C6.84032 11.5296 7.22032 10.7796 7.63032 10.3696L15.5103 2.48957C17.5003 0.49957 19.5203 0.49957 21.5103 2.48957C22.6003 3.57957 23.0903 4.68957 22.9903 5.79957C22.9003 6.69957 22.4203 7.57957 21.5103 8.47957L13.6303 16.3596C13.2203 16.7696 12.4703 17.1496 11.8903 17.2296L8.88032 17.6596C8.75032 17.6896 8.62032 17.6896 8.50032 17.6896ZM16.5703 3.54957L8.69032 11.4296C8.50032 11.6196 8.28032 12.0596 8.24032 12.3196L7.81032 15.3296C7.77032 15.6196 7.83032 15.8596 7.98032 16.0096C8.13032 16.1596 8.37032 16.2196 8.66032 16.1796L11.6703 15.7496C11.9303 15.7096 12.3803 15.4896 12.5603 15.2996L20.4403 7.41957C21.0903 6.76957 21.4303 6.18957 21.4803 5.64957C21.5403 4.99957 21.2003 4.30957 20.4403 3.53957C18.8403 1.93957 17.7403 2.38957 16.5703 3.54957Z" fill="black"/>
<path d="M19.8496 9.83027C19.7796 9.83027 19.7096 9.82027 19.6496 9.80027C17.0196 9.06027 14.9296 6.97027 14.1896 4.34027C14.0796 3.94027 14.3096 3.53027 14.7096 3.41027C15.1096 3.30027 15.5196 3.53027 15.6296 3.93027C16.2296 6.06027 17.9196 7.75027 20.0496 8.35027C20.4496 8.46027 20.6796 8.88027 20.5696 9.28027C20.4796 9.62027 20.1796 9.83027 19.8496 9.83027Z" fill="black"/>
</svg>
