<svg width="22" height="22" viewBox="0 0 22 22" fill="none" xmlns="http://www.w3.org/2000/svg">
<path d="M19.7083 10.083V15.583C19.7083 19.2497 18.7917 20.1663 15.125 20.1663H5.95833C2.29167 20.1663 1.375 19.2497 1.375 15.583V6.41634C1.375 2.74967 2.29167 1.83301 5.95833 1.83301H7.33333C8.70833 1.83301 9.01083 2.23634 9.53333 2.93301L10.9083 4.76634C11.2567 5.22467 11.4583 5.49967 12.375 5.49967H15.125C18.7917 5.49967 19.7083 6.41634 19.7083 10.083Z" stroke="black" stroke-miterlimit="10"/>
<path d="M7.33301 1.83301H15.583C17.4163 1.83301 18.333 2.74967 18.333 4.58301V5.84801" stroke="black" stroke-miterlimit="10" stroke-linecap="round" stroke-linejoin="round"/>
<path d="M12.8333 13.75H8.25" stroke="black" stroke-miterlimit="10" stroke-linecap="round" stroke-linejoin="round"/>
</svg>
