<svg width="9" height="15" viewBox="0 0 9 15" fill="none" xmlns="http://www.w3.org/2000/svg">
<path d="M9 0.822581C9 1.03763 8.94329 1.26344 8.82987 1.5C8.71645 1.72581 8.569 1.93011 8.38752 2.1129C8.21739 2.2957 8.02457 2.44624 7.80907 2.56452C7.59357 2.6828 7.37807 2.74194 7.16257 2.74194C6.96975 2.74194 6.82231 2.67742 6.72023 2.54839C6.61815 2.4086 6.56711 2.24194 6.56711 2.04839C6.56711 1.87634 6.60113 1.67204 6.66919 1.43548C6.73724 1.19892 6.83932 0.978495 6.97543 0.774194C7.11153 0.55914 7.27599 0.376344 7.46881 0.225806C7.66163 0.0752688 7.8828 0 8.13233 0C8.37051 0 8.57467 0.0860215 8.7448 0.258065C8.91493 0.430108 9 0.61828 9 0.822581ZM5.81853 4.40323C5.67108 4.6828 5.46125 5.05376 5.18904 5.51613C4.92817 5.96774 4.64461 6.46774 4.33837 7.01613C4.03214 7.55376 3.72023 8.12366 3.40265 8.72581C3.08507 9.3172 2.79584 9.89785 2.53497 10.4677C2.28544 11.0269 2.08129 11.5538 1.9225 12.0484C1.76371 12.543 1.68431 12.9624 1.68431 13.3065C1.68431 13.6183 1.75236 13.8333 1.88847 13.9516C2.02457 14.0591 2.21739 14.1129 2.46692 14.1129C2.93195 14.1129 3.38563 13.9677 3.82798 13.6774C4.27032 13.3871 4.70699 13.0108 5.138 12.5484C5.58034 12.0753 6.01134 11.5376 6.431 10.9355C6.85066 10.3333 7.27032 9.72581 7.68998 9.1129L8.30246 9.56452C7.97354 10.1237 7.59924 10.7204 7.17958 11.3548C6.77127 11.9892 6.31191 12.5806 5.80151 13.129C5.29112 13.6667 4.72968 14.1129 4.1172 14.4677C3.50473 14.8226 2.83554 15 2.10964 15C1.42911 15 0.907372 14.8065 0.544423 14.4194C0.181474 14.0323 0 13.5323 0 12.9194C0 12.1989 0.175803 11.4462 0.52741 10.6613C0.879017 9.87634 1.31569 9.10215 1.83743 8.33871C2.37051 7.56452 2.94329 6.82258 3.55577 6.1129C4.17958 5.40323 4.75236 4.75806 5.2741 4.17742L5.81853 4.40323Z" fill="white"/>
</svg>
