<svg width="15" height="15" viewBox="0 0 15 15" fill="none" xmlns="http://www.w3.org/2000/svg">
<path d="M12.6596 4.56261C12.6477 4.56261 12.6299 4.56261 12.612 4.56261C9.4605 4.24687 6.31497 4.12772 3.19922 4.44346L1.9839 4.56261C1.73369 4.58644 1.51327 4.40772 1.48944 4.15751C1.46561 3.90729 1.64433 3.69282 1.88859 3.66899L3.1039 3.54985C6.27327 3.22814 9.48433 3.35325 12.7014 3.66899C12.9456 3.69282 13.1243 3.91325 13.1005 4.15751C13.0826 4.38985 12.886 4.56261 12.6596 4.56261Z" fill="black"/>
<path d="M5.21288 3.96083C5.18905 3.96083 5.16522 3.96083 5.13543 3.95487C4.89713 3.91317 4.73032 3.68083 4.77202 3.44253L4.90309 2.66211C4.99841 2.09019 5.12947 1.29785 6.51756 1.29785H8.07841C9.47245 1.29785 9.60351 2.11998 9.69288 2.66806L9.82394 3.44253C9.86564 3.68679 9.69883 3.91913 9.46054 3.95487C9.21628 3.99657 8.98394 3.82977 8.94819 3.59147L8.81713 2.817C8.73373 2.2987 8.71585 2.19743 8.08436 2.19743H6.52351C5.89202 2.19743 5.88011 2.28083 5.79075 2.81104L5.65373 3.58551C5.61798 3.80594 5.42734 3.96083 5.21288 3.96083Z" fill="black"/>
<path d="M9.21069 14.1062H5.38601C3.30686 14.1062 3.22346 12.9564 3.15793 12.0271L2.77069 6.02792C2.75282 5.78367 2.94346 5.5692 3.18771 5.55133C3.43793 5.53941 3.64644 5.72409 3.66431 5.96835L4.05154 11.9675C4.11708 12.873 4.14091 13.2126 5.38601 13.2126H9.21069C10.4618 13.2126 10.4856 12.873 10.5452 11.9675L10.9324 5.96835C10.9503 5.72409 11.1647 5.53941 11.409 5.55133C11.6532 5.5692 11.8439 5.77771 11.826 6.02792L11.4388 12.0271C11.3732 12.9564 11.2898 14.1062 9.21069 14.1062Z" fill="black"/>
<path d="M8.28708 10.8297H6.30325C6.059 10.8297 5.85645 10.6271 5.85645 10.3828C5.85645 10.1386 6.059 9.93604 6.30325 9.93604H8.28708C8.53134 9.93604 8.73389 10.1386 8.73389 10.3828C8.73389 10.6271 8.53134 10.8297 8.28708 10.8297Z" fill="black"/>
<path d="M8.78784 8.44684H5.80911C5.56486 8.44684 5.3623 8.24429 5.3623 8.00003C5.3623 7.75578 5.56486 7.55322 5.80911 7.55322H8.78784C9.03209 7.55322 9.23465 7.75578 9.23465 8.00003C9.23465 8.24429 9.03209 8.44684 8.78784 8.44684Z" fill="black"/>
</svg>
